# xmcd
#
# Track frame offsets: 
#        150
#        11811
#        30420
#        44962
#        62488
#        77160
#        95998
#        112289
#        129524
#        147529
#        164323
#        175731
#        192561
#
# Disc length: 3076 seconds
#
# Revision: 0
# Processed by: cddbd v1.5.2PL0 Copyright (c) Steve Scherf et al.
# Submitted via: ExactAudioCopy v0.90b4
#
DISCID=c30c020d
DTITLE=Darren Kozelsky - Let Your Mind Fly
DYEAR=2006
DGENRE=Country
TTITLE0=Cool Grass
TTITLE1=Messed Up In Love
TTITLE2=Mind Over Matter
TTITLE3=Name On Her Wing
TTITLE4=Loving You
TTITLE5=Other Side Of Morning
TTITLE6=Running Kind
TTITLE7=Only Just Your Friend
TTITLE8=Down Into Black
TTITLE9=Restless Spirits
TTITLE10=Love Lays Before You
TTITLE11=Why Do I Dream
TTITLE12=Standing In A Moment
EXTD=
EXTT0=
EXTT1=
EXTT2=
EXTT3=
EXTT4=
EXTT5=
EXTT6=
EXTT7=
EXTT8=
EXTT9=
EXTT10=
EXTT11=
EXTT12=
PLAYORDER=
